<svg width="51" height="51" viewBox="0 0 51 51" fill="none" xmlns="http://www.w3.org/2000/svg">
<rect width="51" height="51" rx="25.5" fill="white"/>
<path d="M36.125 34.0689C36.125 34.5851 35.7066 35.0035 35.1904 35.0035H34.2558V35.9381C34.2558 36.4543 33.8374 36.8727 33.3212 36.8727C32.805 36.8727 32.3866 36.4543 32.3866 35.9381V35.0035H31.452C30.9358 35.0035 30.5174 34.5851 30.5174 34.0689C30.5174 33.5527 30.9358 33.1343 31.452 33.1343H32.3866V32.1997C32.3866 31.6835 32.805 31.2651 33.3212 31.2651C33.8374 31.2651 34.2558 31.6835 34.2558 32.1997V33.1343H35.1904C35.7066 33.1343 36.125 33.5527 36.125 34.0689ZM36.125 19.489V28.4612C36.125 28.9774 35.7066 29.3959 35.1904 29.3959C34.6742 29.3959 34.2558 28.9774 34.2558 28.4612V20.4236H32.3866V23.2274C32.3866 23.7436 31.9682 24.1621 31.452 24.1621C30.9358 24.1621 30.5174 23.7436 30.5174 23.2274V20.4236H21.5451V23.2274C21.5451 23.7436 21.1267 24.1621 20.6105 24.1621C20.0943 24.1621 19.6759 23.7436 19.6759 23.2274V20.4236H17.8067V35.0035H27.7135C28.2297 35.0035 28.6481 35.4219 28.6481 35.9381C28.6481 36.4543 28.2297 36.8727 27.7135 36.8727H16.8721C16.3559 36.8727 15.9375 36.4543 15.9375 35.9381V19.489C15.9375 18.9728 16.3559 18.5544 16.8721 18.5544H19.7201C20.0914 15.4012 22.7799 12.9468 26.0312 12.9468C29.2826 12.9468 31.9711 15.4012 32.3424 18.5544H35.1904C35.7066 18.5544 36.125 18.9728 36.125 19.489ZM30.4547 18.5544C30.0977 16.4354 28.2501 14.816 26.0312 14.816C23.8124 14.816 21.9648 16.4354 21.6078 18.5544H30.4547Z" fill="#19191D"/>
</svg>
