<svg width="49" height="49" viewBox="0 0 49 49" fill="none" xmlns="http://www.w3.org/2000/svg">
<path d="M11.0791 41.4654H31.9873C32.3837 41.4654 32.7051 41.1441 32.7051 40.7476C32.7051 40.3511 32.3837 40.0298 31.9873 40.0298H11.0791C10.6827 40.0298 10.3613 40.3511 10.3613 40.7476C10.3613 41.1441 10.6828 41.4654 11.0791 41.4654Z" fill="#ECE2D6"/>
<path d="M30.531 43.8873C30.531 43.4908 30.2097 43.1694 29.8132 43.1694H13.253C12.8565 43.1694 12.5352 43.4908 12.5352 43.8873C12.5352 44.2837 12.8566 44.6051 13.253 44.6051H29.8132C30.2097 44.6051 30.531 44.2837 30.531 43.8873Z" fill="#ECE2D6"/>
<path d="M19.923 11.1602C20.9907 10.8774 22.0734 10.8775 23.141 11.1603C23.9664 11.379 24.7566 11.7974 25.4261 12.3702C25.7275 12.6281 26.1804 12.5925 26.4381 12.2915C26.6959 11.9902 26.6607 11.5371 26.3594 11.2794C25.527 10.5671 24.5412 10.046 23.5086 9.77254C22.1971 9.42507 20.8671 9.42517 19.5555 9.77245C17.4342 10.3343 15.6159 11.9007 14.81 13.8604C14.3592 14.9566 14.1499 16.1652 14.188 17.4529C14.238 19.1481 14.7087 20.908 15.5135 22.4083C16.4241 24.106 17.7016 25.3735 19.208 26.0739C19.3124 26.1225 19.4182 26.1667 19.5245 26.2083C19.3676 26.3905 19.2186 26.5878 19.0887 26.8C18.7329 27.3812 18.6857 28.1008 18.9623 28.7252C19.2378 29.347 19.7999 29.7934 20.4658 29.9195C20.5471 29.9349 20.6317 29.9469 20.7178 29.9574C20.6606 30.6629 20.4021 31.0434 20.0845 31.5098C19.686 32.0951 19.1901 32.8231 19.1901 34.1749C19.1901 35.5268 19.6861 36.2549 20.0846 36.8402C20.1813 36.9822 20.2729 37.1165 20.355 37.255C20.4892 37.4808 20.7278 37.6061 20.9728 37.6061C21.0975 37.6061 21.2239 37.5735 21.3388 37.5052C21.6796 37.3026 21.7917 36.8621 21.5891 36.5213C21.4843 36.3449 21.376 36.1858 21.2712 36.032C20.9107 35.5026 20.6259 35.0843 20.6259 34.1749C20.6259 33.2656 20.9107 32.8473 21.2711 32.318C21.6364 31.7816 22.0824 31.1235 22.1544 29.9764C22.3105 29.9646 22.4612 29.9465 22.603 29.9196C23.269 29.7935 23.8309 29.347 24.1065 28.7252C24.3832 28.1009 24.336 27.3812 23.9802 26.8001C23.8497 26.587 23.6993 26.3903 23.5416 26.2077C23.6473 26.1662 23.7524 26.1222 23.8561 26.074C24.9598 25.5609 25.9562 24.7233 26.7377 23.6519C28.7421 20.9041 29.4109 17.2579 28.4414 14.3628C28.3155 13.987 27.9089 13.7845 27.5327 13.91C27.1568 14.0359 26.9542 14.4428 27.0799 14.8187C27.9065 17.2866 27.3168 20.4217 25.5778 22.8059C24.9392 23.6814 24.1347 24.3613 23.2509 24.7722C22.1586 25.2802 20.9056 25.2802 19.8134 24.7722C17.0457 23.4854 15.7011 20.0541 15.6231 17.4106C15.5915 16.341 15.7695 15.3022 16.1379 14.4065C16.7763 12.8534 18.2268 11.6095 19.923 11.1602ZM20.313 27.5496C20.5513 27.1602 20.8933 26.8276 21.198 26.578C21.3092 26.5848 21.4206 26.589 21.532 26.589C21.6445 26.589 21.7568 26.5846 21.8691 26.5777C22.1745 26.8278 22.5176 27.1611 22.7555 27.5496C22.8666 27.7311 22.8805 27.9476 22.7937 28.1434C22.708 28.3367 22.5411 28.47 22.3357 28.5088C21.8323 28.6042 21.2344 28.6039 20.7326 28.5088C20.5272 28.47 20.3603 28.3367 20.2746 28.1434C20.188 27.9476 20.2018 27.7311 20.313 27.5496Z" fill="#ECE2D6"/>
<path d="M13.4563 28.9629C13.0599 28.9629 12.714 29.2167 12.5956 29.5948C12.3128 30.4975 11.5945 32.1031 9.96241 32.7133C9.60728 32.846 9.37793 33.1772 9.37793 33.5575C9.37793 33.9376 9.60738 34.269 9.96222 34.4015C11.5945 35.0118 12.3128 36.6174 12.5956 37.5201C12.714 37.8981 13.0599 38.1519 13.4563 38.1519C13.8527 38.1519 14.1984 37.8981 14.3169 37.5201C14.5998 36.6173 15.318 35.0119 16.9501 34.4015C17.3053 34.269 17.5346 33.9376 17.5346 33.5575C17.5346 33.1772 17.3052 32.8459 16.9503 32.7133C15.318 32.103 14.5998 30.4974 14.3169 29.5948C14.1984 29.2167 13.8526 28.9629 13.4563 28.9629ZM15.4545 33.5574C14.4986 34.1794 13.8671 35.0484 13.4562 35.8463C13.0452 35.0484 12.4137 34.1795 11.4579 33.5575C12.4136 32.9355 13.0452 32.0663 13.4562 31.2686C13.8671 32.0663 14.4988 32.9354 15.4545 33.5574Z" fill="#ECE2D6"/>
<path d="M44.7577 14.1162C42.6797 13.3393 41.7693 11.3081 41.4115 10.1665C41.2875 9.77069 40.9254 9.50487 40.5099 9.50487C40.0949 9.50487 39.7328 9.77079 39.6087 10.1665C39.5617 10.3166 39.5047 10.4825 39.4372 10.6585V6.8101C39.4372 5.87585 38.6771 5.11591 37.7429 5.11591H34.0002V1.69643C34.0002 1.19149 33.7778 0.716518 33.3898 0.393265C33.002 0.0700107 32.4948 -0.0629473 31.9976 0.0279887C31.9976 0.0279887 4.21398 5.12864 4.21187 5.12902C3.87886 5.19134 3.62988 5.492 3.62988 5.83373V47.3058C3.62988 48.24 4.38992 48.9999 5.32417 48.9999H10.6933C11.0898 48.9999 11.4111 48.6786 11.4111 48.2821C11.4111 47.8856 11.0897 47.5643 10.6933 47.5643H5.32407C5.18144 47.5643 5.06552 47.4483 5.06552 47.3058V6.55155H37.743C37.8856 6.55155 38.0016 6.66757 38.0016 6.8101V12.9724C37.5407 13.4425 36.9693 13.852 36.2625 14.1163C35.891 14.2553 35.6511 14.6023 35.6511 15.0003C35.6511 15.3983 35.891 15.7453 36.2626 15.8844C36.9694 16.1486 37.5408 16.5582 38.0016 17.0282V47.3058C38.0016 47.4483 37.8856 47.5643 37.743 47.5643H14.0192C13.6227 47.5643 13.3014 47.8856 13.3014 48.2821C13.3014 48.6786 13.6227 48.9999 14.0192 48.9999H37.7429C38.6771 48.9999 39.4372 48.2399 39.4372 47.3058V19.3421C39.5047 19.5182 39.5616 19.684 39.6087 19.8341C39.7327 20.2299 40.0949 20.4958 40.5101 20.4959C40.9252 20.4959 41.2875 20.2301 41.4116 19.8342C41.7693 18.6927 42.6797 16.6614 44.7578 15.8844C45.1293 15.7454 45.3694 15.3985 45.3694 15.0004C45.3694 14.6023 45.1294 14.2553 44.7577 14.1162ZM32.5646 5.11591H12.2337L32.2568 1.44018C32.3614 1.42075 32.4357 1.46708 32.4708 1.49637C32.5057 1.52556 32.5645 1.59027 32.5645 1.69643V5.11591H32.5646ZM40.5101 18.1991C39.9943 17.0995 39.1337 15.8287 37.7307 15.0003C39.1335 14.1719 39.9943 12.901 40.5101 11.8015C41.026 12.9011 41.8864 14.172 43.2895 15.0003C41.8865 15.8289 41.0261 17.0996 40.5101 18.1991Z" fill="#ECE2D6"/>
</svg>
