<svg width="49" height="49" viewBox="0 0 49 49" fill="none" xmlns="http://www.w3.org/2000/svg">
<g clip-path="url(#clip0)">
<path d="M8.04405 45.4508C7.131 46.5062 5.86214 47.1903 4.4784 47.373L4.68104 48.9937C6.42896 48.7771 8.03847 47.9319 9.2092 46.6155L11.3544 48.7607C11.5882 48.9945 11.9392 49.0643 12.2447 48.9378C12.5499 48.8114 12.7489 48.5134 12.7489 48.1832V40.7674L14.3361 43.6769C14.8682 44.6526 15.8455 45.3048 16.9504 45.4213C17.0677 45.4336 17.1857 45.44 17.3042 45.44C18.2915 45.4412 19.23 45.0108 19.8734 44.2621C20.6058 43.4073 20.8647 42.2437 20.5643 41.1588C20.264 40.0738 19.443 39.2094 18.3748 38.8532L17.7322 38.6382L46.3244 35.8512C46.5765 35.8264 46.8027 35.686 46.9371 35.471C47.0715 35.2564 47.0987 34.9916 47.0105 34.7538L46.847 34.3143C46.2215 32.6258 45.5083 30.978 44.7233 29.3696C45.3799 29.3042 45.971 28.9444 46.3304 28.3908C46.6894 27.8371 46.7776 27.1502 46.5694 26.5244C46.4593 26.1853 46.32 25.8535 46.196 25.5176L48.427 23.4593C48.5949 23.3046 48.6902 23.0868 48.6902 22.8586C48.6902 22.6305 48.5949 22.4131 48.427 22.2583L46.1976 20.2012C46.322 19.8654 46.4585 19.5339 46.5694 19.194C46.7863 18.5271 46.6711 17.7967 46.2594 17.2287C45.8478 16.6611 45.1892 16.3244 44.488 16.3233H42.5917L45.0548 13.8593C45.5705 13.344 45.8119 12.6148 45.7058 11.8932C45.6001 11.172 45.1593 10.543 44.5175 10.1971L43.7568 9.78869H43.7919V6.52021C43.7919 6.06907 43.4261 5.70329 42.975 5.70329H39.8764L39.2988 4.62829C38.953 3.98648 38.324 3.54571 37.6028 3.4396C36.8812 3.3339 36.152 3.57522 35.6367 4.09098L33.1719 6.55451V4.19031C33.1707 3.48946 32.8341 2.8309 32.2665 2.41925C31.6992 2.0076 30.9689 1.89232 30.3019 2.10892C29.9629 2.21821 29.6314 2.35383 29.2956 2.48148L27.2369 0.251299C27.0785 0.0905474 26.8623 0 26.6366 0C26.4108 0 26.1946 0.0905474 26.0362 0.251299L23.9888 2.46672C23.6517 2.34187 23.3142 2.21741 22.972 2.10572C22.3043 1.88873 21.5731 2.00441 21.0055 2.41686C20.4375 2.82931 20.1012 3.48867 20.1012 4.19031V4.23299C18.9002 3.61711 17.684 3.02875 16.4346 2.50022C16.4259 2.50022 16.4167 2.50022 16.4079 2.50022C16.3042 2.45874 16.1929 2.43999 16.0812 2.44478H16.0377C15.936 2.45355 15.8367 2.48108 15.7454 2.52655C15.7354 2.53213 15.7274 2.53931 15.7174 2.5453C15.7079 2.55088 15.7079 2.5453 15.7039 2.5453C15.6995 2.5453 15.6923 2.55806 15.6847 2.56325C15.5878 2.62348 15.504 2.70326 15.4398 2.79779C15.4398 2.80497 15.4334 2.81215 15.4282 2.81973C15.3632 2.92105 15.3213 3.03593 15.3058 3.15559L11.6871 33.5504L11.1681 31.6497C10.7904 30.2648 9.5343 29.303 8.0991 29.299C6.66351 29.2955 5.40263 30.2508 5.0173 31.6333C4.63237 33.0163 5.21834 34.4858 6.44891 35.2245L8.98303 36.7463H1.31204C0.981762 36.7463 0.683793 36.9453 0.557346 37.2509C0.430899 37.556 0.500704 37.907 0.734452 38.1408L5.4114 42.8177C3.90481 43.6474 2.21512 44.0878 0.49512 44.0985V45.7324C2.65469 45.7244 4.77278 45.1388 6.6292 44.0359L8.04405 45.4508ZM17.8579 40.3997C18.6018 40.6466 19.0904 41.359 19.0533 42.142C19.0158 42.925 18.4618 43.5876 17.6979 43.7627C16.9336 43.9378 16.1462 43.5832 15.7717 42.8947L13.664 39.0339L13.7342 39.0263L17.8579 40.3997ZM45.5442 21.8179L46.6715 22.8586L45.5442 23.8993C45.389 23.5531 45.2311 23.2076 45.0624 22.8678C45.2347 22.522 45.3874 22.1693 45.5442 21.8179ZM44.9395 27.53C44.8354 27.6752 44.6671 27.7613 44.488 27.7601H43.8972C43.626 27.2464 43.3547 26.7326 43.0671 26.2284C43.4257 25.7099 43.77 25.1837 44.0899 24.6452C44.4397 25.4223 44.7492 26.2164 45.0173 27.025C45.0755 27.1957 45.0464 27.3844 44.9395 27.53ZM44.488 17.9571C44.6667 17.9575 44.8346 18.0429 44.9395 18.1877C45.0444 18.332 45.0739 18.5183 45.0189 18.6883C44.3248 20.7984 43.3575 22.8084 42.1417 24.6676C40.8744 22.6037 39.4739 20.6252 37.9494 18.7437C38.8585 18.6579 39.7416 18.3907 40.5454 17.9571H44.488ZM43.7428 11.6359C43.9299 11.7368 44.0584 11.9203 44.0891 12.131C44.1198 12.3412 44.0496 12.5538 43.8996 12.7045L42.1636 14.4445C42.3854 13.7297 42.4648 12.9782 42.3974 12.2331C42.3483 11.7456 42.2666 11.2618 42.1525 10.7855L43.7428 11.6359ZM42.1581 7.33713V8.92709L41.3499 8.4923C41.2789 8.34511 41.2179 8.19433 41.1393 8.04954L40.7564 7.33713H42.1581ZM33.8999 8.1369L36.791 5.24576C36.9414 5.09658 37.1528 5.02637 37.3626 5.05629C37.5737 5.08621 37.7571 5.21505 37.8577 5.40292L39.6997 8.82418C40.2937 9.92351 40.6574 11.1321 40.7691 12.3767C40.9052 13.6236 40.4353 14.8601 39.5055 15.7018C38.6283 16.5047 37.4476 16.8901 36.2657 16.7588C35.0583 15.401 33.7866 14.1038 32.4515 12.8669C32.1181 11.1477 32.6606 9.37504 33.8999 8.1369ZM45.1046 34.325L16.5746 37.1065C21.3453 34.3797 24.9222 29.9652 26.6007 24.7326C28.9812 16.9942 25.6106 11.0085 22.1411 7.21547C32.6306 13.4074 40.7221 22.9599 45.1046 34.325ZM30.8029 3.66098C30.9733 3.60434 31.1607 3.63306 31.3063 3.73837C31.4519 3.84367 31.5385 4.0124 31.5381 4.1919V6.7392C30.5532 5.95219 29.5161 5.2334 28.434 4.5876C29.207 4.23857 29.998 3.92944 30.8029 3.66098ZM26.6366 2.0068L27.6773 3.13405C27.331 3.28922 26.9844 3.44479 26.6446 3.61352C26.3023 3.44359 25.9585 3.27566 25.609 3.1193L26.6366 2.0068ZM21.7351 4.19031C21.7354 4.01121 21.8216 3.84248 21.9672 3.73797C22.1128 3.63306 22.2999 3.60434 22.4702 3.66098C25.783 4.74556 28.8404 6.49308 31.4563 8.79705C31.0594 9.59283 30.8201 10.4576 30.7523 11.3443C27.9605 8.96738 24.9397 6.87282 21.7351 5.09139V4.19031ZM16.7721 4.64943C18.6971 5.98689 20.4267 7.58563 21.9106 9.39977C25.6062 13.9894 26.6585 18.9866 25.0386 24.2523C22.6214 32.108 15.9153 35.8077 13.0365 37.073L12.9157 37.0323L16.7721 4.64943ZM9.02611 44.1225L8.02212 43.1185C8.88052 42.4763 9.6771 41.7559 10.4019 40.9665C10.076 42.0714 9.61367 43.1316 9.02611 44.1225ZM11.1151 46.2111L10.2164 45.3128C10.5539 44.7986 10.8542 44.2617 11.1151 43.7048V46.2111ZM7.28697 33.8236C6.68704 33.4626 6.40184 32.7458 6.58971 32.0717C6.77759 31.3976 7.39267 30.9317 8.09272 30.9333C8.79277 30.9353 9.40546 31.404 9.58974 32.0793L10.6085 35.8169L7.28697 33.8236ZM3.28414 38.3801H10.4043C9.40506 39.7407 8.20361 40.9406 6.84181 41.9378L3.28414 38.3801Z" fill="#ECE2D6"/>
</g>
<defs>
<clipPath id="clip0">
<rect width="49" height="49" fill="white"/>
</clipPath>
</defs>
</svg>
