<svg width="18" height="16" viewBox="0 0 18 16" fill="none" xmlns="http://www.w3.org/2000/svg">
<path d="M7.5 2C6.70834 2 5.94403 2.12422 5.22834 2.36919C4.55766 2.59878 3.96094 2.92287 3.45487 3.33241C2.51669 4.09163 2 5.06369 2 6.0695C2 6.63184 2.15728 7.17806 2.4675 7.69291C2.79072 8.22947 3.27841 8.72094 3.87781 9.11413C4.35344 9.42613 4.67369 9.92588 4.75847 10.4883C4.77256 10.5819 4.78394 10.6759 4.79253 10.7701C4.83506 10.7307 4.87728 10.6902 4.91931 10.6483C5.29647 10.2727 5.80506 10.0653 6.33059 10.0653C6.41416 10.0653 6.49806 10.0706 6.58206 10.0812C6.88456 10.1195 7.19338 10.139 7.5 10.139C8.29166 10.139 9.05594 10.0148 9.77162 9.76978C10.4423 9.54022 11.0391 9.21613 11.5451 8.80659C12.4833 8.04737 13 7.07531 13 6.0695C13 5.06369 12.4833 4.09166 11.5451 3.33241C11.0391 2.92284 10.4423 2.59878 9.77162 2.36919C9.05594 2.12422 8.29166 2 7.5 2ZM7.5 0C11.6421 0 15 2.71741 15 6.0695C15 9.42159 11.6421 12.139 7.5 12.139C7.10222 12.139 6.71178 12.1137 6.33072 12.0654C4.71969 13.67 2.85928 13.9577 1 14V13.6073C2.00394 13.1174 2.8125 12.225 2.8125 11.2052C2.8125 11.0629 2.80137 10.9232 2.78078 10.7865C1.08456 9.67381 0 7.97422 0 6.0695C0 2.71741 3.35787 0 7.5 0V0ZM15.5625 13.6045C15.5625 14.4786 16.1299 15.2435 17 15.6634V16C15.3887 15.9638 13.9096 15.7172 12.5134 14.3418C12.1831 14.3832 11.8448 14.4049 11.5 14.4049C10.0083 14.4049 8.63425 14.0024 7.53728 13.3262C9.79781 13.3183 11.932 12.5941 13.5503 11.2844C14.3661 10.6242 15.0096 9.84962 15.463 8.98209C15.9437 8.06231 16.1875 7.08238 16.1875 6.0695C16.1875 5.90625 16.1805 5.74394 16.1678 5.5825C17.3017 6.51897 18 7.79534 18 9.20244C18 10.8351 17.06 12.2918 15.59 13.2456C15.5722 13.3627 15.5625 13.4825 15.5625 13.6045Z" fill="white"/>
</svg>
