<svg width="49" height="49" viewBox="0 0 49 49" fill="none" xmlns="http://www.w3.org/2000/svg">
<path d="M39.6689 18.0425H36.584L37.5135 7.37071C37.5152 7.35138 37.5155 7.33233 37.5156 7.31329C37.5156 7.31166 37.5158 7.31013 37.5158 7.3085C37.5158 7.30821 37.5158 7.30802 37.5158 7.30774C37.5158 7.01728 37.3405 6.76127 37.083 6.64997C37.0808 6.64901 37.0787 6.64786 37.0765 6.6469C37.0605 6.6402 37.044 6.63446 37.0273 6.62891C37.0211 6.6269 37.0151 6.62441 37.0089 6.6225C36.9953 6.61838 36.9814 6.61513 36.9675 6.61178C36.9577 6.60948 36.9483 6.60671 36.9385 6.60479C36.9263 6.6024 36.9137 6.60087 36.9013 6.59905C36.8896 6.59733 36.8781 6.59532 36.8663 6.59427C36.8643 6.59407 36.8625 6.59369 36.8605 6.5935C36.8479 6.59235 36.8354 6.59254 36.8229 6.59206C36.8145 6.59178 36.8062 6.59082 36.7978 6.59082H36.7888C36.788 6.59082 36.7873 6.59082 36.7866 6.59082H22.1085C21.7123 6.59082 21.3907 6.91238 21.3907 7.3086C21.3907 7.70385 21.7123 8.02637 22.1085 8.02637H36.0154L34.587 24.4276C34.5868 24.4288 34.5868 24.4301 34.5866 24.4313L34.2262 28.5696H9.28496L9.70213 24.2631H14.451C14.8475 24.2631 15.1688 23.9418 15.1688 23.5454C15.1688 23.149 14.8475 22.8276 14.451 22.8276H9.84129L10.7221 13.7362H18.2803C18.6768 13.7362 18.9981 13.4149 18.9981 13.0185C18.9981 12.6221 18.6768 12.3007 18.2803 12.3007H10.8613L11.2755 8.02637H19.2374C19.6326 8.02637 19.9551 7.70385 19.9551 7.3086C19.9551 6.91238 19.6326 6.59082 19.2374 6.59082H10.624C10.6237 6.59082 10.6234 6.59092 10.623 6.59092C10.2858 6.59082 9.99336 6.82817 9.92264 7.15719C9.92216 7.15959 9.9213 7.16188 9.92082 7.16428C9.91718 7.18217 9.91479 7.20045 9.91239 7.21883C9.91173 7.22467 9.91048 7.23022 9.90991 7.23605C9.90981 7.2372 9.90952 7.23825 9.90943 7.2394L9.41904 12.3007H0.717776C0.321277 12.3007 0 12.6221 0 13.0185C0 13.4149 0.321277 13.7362 0.717776 13.7362H9.27989L8.39904 22.8276H5.83811C5.44161 22.8276 5.12033 23.149 5.12033 23.5454C5.12033 23.9418 5.44161 24.2631 5.83811 24.2631H8.25998L7.78031 29.213C7.78022 29.2138 7.78022 29.2146 7.78012 29.2152L7.03851 36.8695C7.03842 36.8704 7.03832 36.8713 7.03823 36.8721L7.03794 36.8749C7.03698 36.8848 7.03708 36.8946 7.0365 36.9045C7.03583 36.9177 7.03449 36.9307 7.03449 36.944C7.03449 36.9446 7.03459 36.9452 7.03459 36.9459C7.03459 36.9643 7.03593 36.9825 7.03727 37.0007C7.03784 37.0065 7.03765 37.0125 7.03832 37.0182C7.04024 37.0368 7.0434 37.0551 7.04674 37.0732C7.0477 37.0786 7.04818 37.0841 7.04923 37.0893C7.05201 37.1031 7.05593 37.1164 7.05957 37.1299C7.06206 37.1394 7.06407 37.149 7.06694 37.1583C7.0678 37.1609 7.06895 37.1634 7.06971 37.1661C7.10445 37.2729 7.16341 37.3688 7.24035 37.4471C7.24179 37.4485 7.24294 37.4501 7.24437 37.4515C7.25203 37.4591 7.26035 37.466 7.26839 37.4733C7.31787 37.5187 7.37376 37.5571 7.43492 37.5873C7.44765 37.5936 7.46018 37.6002 7.4732 37.6056C7.47712 37.6074 7.48133 37.6085 7.48535 37.6101C7.50335 37.6172 7.52143 37.6241 7.5401 37.63C7.54182 37.6304 7.54345 37.6307 7.54517 37.6313C7.56641 37.6376 7.58785 37.6432 7.60977 37.6477C7.61264 37.6482 7.61561 37.6484 7.61838 37.649C7.63925 37.6529 7.6602 37.6563 7.68155 37.6584C7.68202 37.6584 7.68241 37.6585 7.68289 37.6586C7.70643 37.6609 7.72978 37.662 7.75294 37.662C7.75323 37.662 7.75361 37.6619 7.75399 37.6619H10.9493C11.3022 40.3371 13.5957 42.4091 16.3659 42.4091C19.1358 42.4091 21.4294 40.3371 21.7822 37.6619H33.2952C33.6482 40.3371 35.9416 42.4091 38.7117 42.4091C41.4816 42.4091 43.7754 40.3371 44.1283 37.6619H47.3244C47.3249 37.6619 47.3255 37.662 47.326 37.662C47.3499 37.662 47.3734 37.6606 47.3968 37.6583C47.401 37.6579 47.405 37.657 47.4092 37.6566C47.4279 37.6544 47.4464 37.6518 47.4646 37.6481C47.4725 37.6466 47.48 37.6445 47.4878 37.6427C47.5019 37.6394 47.516 37.636 47.5298 37.6319C47.5392 37.6291 47.5483 37.6258 47.5575 37.6227C47.5692 37.6187 47.581 37.6145 47.5926 37.6098C47.6025 37.6058 47.612 37.6015 47.6217 37.5972C47.6322 37.5923 47.6427 37.5874 47.653 37.5821C47.6627 37.5771 47.6721 37.572 47.6815 37.5666C47.6914 37.5609 47.7011 37.5549 47.7108 37.5488C47.7198 37.5431 47.7288 37.5372 47.7374 37.5311C47.7471 37.5243 47.7564 37.5171 47.7659 37.5098C47.7738 37.5036 47.7817 37.4975 47.7894 37.491C47.7992 37.4827 47.8085 37.474 47.8179 37.4651C47.8244 37.4588 47.8312 37.4527 47.8375 37.4462C47.8474 37.4361 47.8569 37.4253 47.8664 37.4145C47.8715 37.4087 47.8767 37.403 47.8816 37.3971C47.8921 37.3841 47.9017 37.3707 47.9113 37.3572C47.9145 37.3525 47.9182 37.3481 47.9213 37.3433C47.933 37.3258 47.944 37.3078 47.9542 37.2893C47.9549 37.2881 47.9557 37.2871 47.9562 37.2858C47.967 37.2659 47.9769 37.2455 47.9858 37.2245C47.9883 37.2184 47.9902 37.2122 47.9926 37.2062C47.9985 37.1913 48.0042 37.1765 48.0091 37.1611C48.0122 37.1512 48.0145 37.1409 48.0173 37.1309C48.0205 37.1189 48.0238 37.107 48.0265 37.0949C48.0289 37.0841 48.0304 37.073 48.0322 37.062C48.0339 37.0523 48.036 37.0428 48.0372 37.033C48.0677 36.7891 48.6297 32.2797 48.8808 29.3638C48.881 29.361 48.8811 29.3581 48.8814 29.3553C48.9537 28.5148 49 27.8069 49 27.3736C49 22.2285 44.8141 18.0425 39.6689 18.0425ZM36.4589 19.4783H39.3954L39.0203 23.7845H36.0839L36.4589 19.4783ZM16.3661 40.9735C14.1441 40.9735 12.3365 39.1658 12.3365 36.944C12.3365 34.7221 14.1442 32.9145 16.3661 32.9145C18.5879 32.9145 20.3956 34.7221 20.3956 36.944C20.3956 39.1658 18.5879 40.9735 16.3661 40.9735ZM38.7117 40.9735C36.4898 40.9735 34.6823 39.1658 34.6823 36.944C34.6823 34.7221 36.4899 32.9145 38.7117 32.9145C40.9336 32.9145 42.7413 34.7221 42.7413 36.944C42.7413 39.1658 40.9336 40.9735 38.7117 40.9735ZM46.6902 36.2259H44.1285C43.7757 33.5505 41.4821 31.4784 38.7119 31.4784C35.9418 31.4784 33.6482 33.5506 33.2954 36.2259H21.7825C21.4297 33.5505 19.1362 31.4784 16.3661 31.4784C13.5959 31.4784 11.3022 33.5506 10.9494 36.2259H8.54307L9.14591 30.0048H34.8839V30.0052C34.8843 30.0052 34.8846 30.0052 34.885 30.0052C34.909 30.0052 34.9328 30.0038 34.9564 30.0014C34.9608 30.001 34.9651 30.0001 34.9695 29.9995C34.9882 29.9973 35.0069 29.9946 35.0253 29.991C35.0332 29.9894 35.041 29.9872 35.0488 29.9853C35.0632 29.9818 35.0775 29.9785 35.0915 29.9743C35.1011 29.9714 35.1102 29.9679 35.1195 29.9647C35.1315 29.9605 35.1436 29.9564 35.1552 29.9516C35.1653 29.9475 35.175 29.9429 35.1847 29.9383C35.1953 29.9334 35.206 29.9285 35.2162 29.9231C35.226 29.918 35.2355 29.9124 35.2452 29.9069C35.2551 29.9011 35.2648 29.8953 35.2744 29.8892C35.2837 29.8831 35.2925 29.8768 35.3014 29.8705C35.3109 29.8638 35.32 29.8569 35.3292 29.8497C35.3375 29.8431 35.3456 29.8363 35.3536 29.8294C35.3627 29.8215 35.3716 29.8135 35.3802 29.8051C35.3875 29.7982 35.3948 29.791 35.4019 29.7836C35.4105 29.7746 35.4188 29.7653 35.427 29.7559C35.4335 29.7484 35.4398 29.7409 35.4459 29.7333C35.4538 29.7232 35.4614 29.7129 35.4689 29.7025C35.4745 29.6946 35.48 29.6868 35.4853 29.6787C35.4923 29.6679 35.499 29.6568 35.5054 29.6455C35.5103 29.6371 35.5153 29.6287 35.5197 29.6201C35.5257 29.6088 35.5309 29.5973 35.5363 29.5857C35.5405 29.5764 35.5449 29.5673 35.5487 29.5577C35.5534 29.5465 35.5573 29.5349 35.5614 29.5233C35.565 29.5131 35.5687 29.5028 35.5718 29.4923C35.575 29.4812 35.5776 29.4698 35.5805 29.4585C35.5832 29.4471 35.5863 29.4358 35.5885 29.4242C35.5907 29.4129 35.592 29.4015 35.5938 29.39C35.5955 29.3781 35.5975 29.3664 35.5986 29.3544C35.5988 29.3527 35.5992 29.351 35.5993 29.3493L35.9591 25.2197H39.6687C41.8679 25.2197 42.8598 26.3591 43.9097 27.5656C44.7761 28.561 45.7434 29.6716 47.3876 29.9426C47.1788 32.1505 46.8412 34.9848 46.6902 36.2259ZM47.5103 28.5042C46.4437 28.2867 45.7874 27.5369 44.9924 26.6235C43.9982 25.4813 42.7843 24.0873 40.4575 23.8276L40.8288 19.5642C44.6344 20.127 47.5644 23.4143 47.5644 27.3738C47.5644 27.6428 47.5444 28.0337 47.5103 28.5042Z" fill="#ECE2D6"/>
<path d="M16.3662 34.312C14.9151 34.312 13.7344 35.4926 13.7344 36.9439C13.7344 38.3951 14.9151 39.5757 16.3662 39.5757C17.8174 39.5757 18.9981 38.3951 18.9981 36.9439C18.9981 35.4927 17.8174 34.312 16.3662 34.312ZM16.3662 38.1402C15.7065 38.1402 15.1699 37.6035 15.1699 36.9439C15.1699 36.2842 15.7065 35.7476 16.3662 35.7476C17.0259 35.7476 17.5625 36.2842 17.5625 36.9439C17.5625 37.6035 17.0258 38.1402 16.3662 38.1402Z" fill="#ECE2D6"/>
<path d="M38.7119 34.312C37.2608 34.312 36.0801 35.4926 36.0801 36.9439C36.0801 38.3951 37.2608 39.5757 38.7119 39.5757C40.1631 39.5757 41.3438 38.3951 41.3438 36.9439C41.3438 35.4927 40.1631 34.312 38.7119 34.312ZM38.7119 38.1402C38.0522 38.1402 37.5156 37.6035 37.5156 36.9439C37.5156 36.2842 38.0522 35.7476 38.7119 35.7476C39.3716 35.7476 39.9082 36.2842 39.9082 36.9439C39.9082 37.6035 39.3716 38.1402 38.7119 38.1402Z" fill="#ECE2D6"/>
<path d="M6.7952 18.0427H3.28614C2.88964 18.0427 2.56836 18.3641 2.56836 18.7605C2.56836 19.1569 2.88964 19.4783 3.28614 19.4783H6.7952C7.1917 19.4783 7.51298 19.1569 7.51298 18.7605C7.51298 18.3641 7.1917 18.0427 6.7952 18.0427Z" fill="#ECE2D6"/>
</svg>
