<svg width="51" height="51" viewBox="0 0 51 51" fill="none" xmlns="http://www.w3.org/2000/svg">
<rect width="51" height="51" rx="25.5" fill="white"/>
<path d="M35.9662 21.3541L35.9694 21.3886L35.975 21.4227C35.982 21.466 36.0903 22.1745 35.7938 23.4072L35.7937 23.4075C35.3675 25.1813 34.3805 26.8089 32.9198 28.1101L25.4368 34.6656L18.0836 28.1127L18.083 28.1122C16.6208 26.8111 15.6327 25.1822 15.2062 23.4074L15.2062 23.4072C14.9094 22.1734 15.0182 21.4656 15.0249 21.4249L15.0308 21.3894L15.0341 21.3536C15.3303 18.1486 17.5925 16 20.2625 16C22.0399 16 23.6358 16.9295 24.5771 18.5112L25.4271 19.9394L26.2908 18.5195C27.237 16.9641 28.9136 16.0004 30.7374 16.0004C33.4078 16.0004 35.6697 18.149 35.9662 21.3541Z" stroke="#19191D" stroke-width="2"/>
</svg>
