<svg width="25" height="24" viewBox="0 0 25 24" fill="none" xmlns="http://www.w3.org/2000/svg">
<path d="M18.2617 0C16.1821 0 14.3591 1.05126 12.9897 3.0402C12.8071 3.30547 12.6443 3.57084 12.5 3.82786C12.3557 3.57079 12.1929 3.30547 12.0103 3.0402C10.6409 1.05126 8.81787 0 6.73828 0C2.80977 0 0 3.72916 0 8.20397C0 13.3207 3.69907 18.143 11.994 23.8398C12.1495 23.9466 12.3248 24 12.5 24C12.6752 24 12.8505 23.9466 13.006 23.8399C21.3009 18.143 25 13.3207 25 8.20402C25 3.73154 22.1925 0 18.2617 0ZM20.4667 14.5752C18.7397 16.7596 16.1301 19.0598 12.5 21.5956C8.86987 19.0598 6.26025 16.7596 4.53335 14.5752C2.79712 12.3789 1.95312 10.2949 1.95312 8.20402C1.95312 4.98209 3.87373 2.21424 6.73828 2.21424C8.19707 2.21424 9.44092 2.93331 10.4353 4.35153C11.2304 5.48572 11.5654 6.65688 11.5678 6.66524C11.695 7.12774 12.0727 7.44277 12.5 7.44277C12.9274 7.44277 13.3051 7.12779 13.4323 6.66524C13.4354 6.65406 13.7604 5.51943 14.5293 4.40257C15.5291 2.95047 16.7849 2.21418 18.2617 2.21418C21.1293 2.21418 23.0469 4.98469 23.0469 8.20397C23.0469 10.2948 22.2029 12.3789 20.4667 14.5752Z" fill="black"/>
</svg>
