<svg width="25" height="25" viewBox="0 0 25 25" fill="none" xmlns="http://www.w3.org/2000/svg">
<path d="M18.0962 8.26691C17.9811 7.95525 17.7977 7.67316 17.5592 7.4416C17.3277 7.20319 17.0458 7.0197 16.7339 6.90469C16.481 6.80646 16.1011 6.68954 15.4013 6.65768C14.6442 6.62316 14.4173 6.61572 12.5008 6.61572C10.5841 6.61572 10.3571 6.62297 9.60026 6.65749C8.90045 6.68954 8.52032 6.80646 8.26759 6.90469C7.95574 7.0197 7.67365 7.20319 7.44228 7.4416C7.20387 7.67316 7.02038 7.95506 6.90517 8.26691C6.80695 8.51983 6.69003 8.89996 6.65817 9.59977C6.62365 10.3566 6.61621 10.5836 6.61621 12.5003C6.61621 14.4168 6.62365 14.6438 6.65817 15.4008C6.69003 16.1006 6.80695 16.4805 6.90517 16.7334C7.02038 17.0453 7.20367 17.3272 7.44209 17.5588C7.67365 17.7972 7.95555 17.9807 8.2674 18.0957C8.52032 18.1941 8.90045 18.311 9.60026 18.3429C10.3571 18.3774 10.5839 18.3846 12.5006 18.3846C14.4175 18.3846 14.6444 18.3774 15.4011 18.3429C16.1009 18.311 16.481 18.1941 16.7339 18.0957C17.3599 17.8542 17.8547 17.3594 18.0962 16.7334C18.1944 16.4805 18.3113 16.1006 18.3434 15.4008C18.3779 14.6438 18.3851 14.4168 18.3851 12.5003C18.3851 10.5836 18.3779 10.3566 18.3434 9.59977C18.3115 8.89996 18.1946 8.51983 18.0962 8.26691ZM12.5008 16.1858C10.4651 16.1858 8.81481 14.5358 8.81481 12.5001C8.81481 10.4644 10.4651 8.81432 12.5008 8.81432C14.5363 8.81432 16.1865 10.4644 16.1865 12.5001C16.1865 14.5358 14.5363 16.1858 12.5008 16.1858ZM16.3322 9.52996C15.8566 9.52996 15.4709 9.14429 15.4709 8.6686C15.4709 8.19291 15.8566 7.80724 16.3322 7.80724C16.8079 7.80724 17.1936 8.19291 17.1936 8.6686C17.1934 9.14429 16.8079 9.52996 16.3322 9.52996Z" fill="#949494"/>
<path d="M14.8926 12.5C14.8926 13.8214 13.8214 14.8926 12.5 14.8926C11.1786 14.8926 10.1074 13.8214 10.1074 12.5C10.1074 11.1786 11.1786 10.1074 12.5 10.1074C13.8214 10.1074 14.8926 11.1786 14.8926 12.5Z" fill="#949494"/>
<path d="M23.197 0H1.80302C0.80719 0 0 0.80719 0 1.80302V23.197C0 24.1928 0.80719 25 1.80302 25H23.197C24.1928 25 25 24.1928 25 23.197V1.80302C25 0.80719 24.1928 0 23.197 0V0ZM19.6344 15.4593C19.5997 16.2233 19.4782 16.745 19.3008 17.2016C18.928 18.1658 18.1658 18.928 17.2016 19.3008C16.7452 19.4782 16.2233 19.5995 15.4594 19.6344C14.694 19.6693 14.4495 19.6777 12.5002 19.6777C10.5507 19.6777 10.3064 19.6693 9.54075 19.6344C8.77686 19.5995 8.255 19.4782 7.79858 19.3008C7.31945 19.1206 6.88572 18.8381 6.52714 18.4729C6.16207 18.1145 5.87959 17.6805 5.69935 17.2016C5.52197 16.7452 5.40047 16.2233 5.36575 15.4594C5.33047 14.6938 5.32227 14.4493 5.32227 12.5C5.32227 10.5507 5.33047 10.3062 5.36556 9.54075C5.40028 8.77666 5.52158 8.255 5.69897 7.79839C5.87921 7.31945 6.16188 6.88553 6.52714 6.52714C6.88553 6.16188 7.31945 5.8794 7.79839 5.69916C8.255 5.52177 8.77666 5.40047 9.54075 5.36556C10.3062 5.33066 10.5507 5.32227 12.5 5.32227C14.4493 5.32227 14.6938 5.33066 15.4593 5.36575C16.2233 5.40047 16.745 5.52177 17.2016 5.69897C17.6805 5.87921 18.1145 6.16188 18.4731 6.52714C18.8381 6.88572 19.1208 7.31945 19.3008 7.79839C19.4784 8.255 19.5997 8.77666 19.6346 9.54075C19.6695 10.3062 19.6777 10.5507 19.6777 12.5C19.6777 14.4493 19.6695 14.6938 19.6344 15.4593Z" fill="#949494"/>
</svg>
