<svg width="17" height="15" viewBox="0 0 17 15" fill="none" xmlns="http://www.w3.org/2000/svg">
<path d="M12.418 0C11.0038 0 9.76418 0.65704 8.83299 1.90013C8.70881 2.06592 8.59811 2.23178 8.5 2.39241C8.40189 2.23174 8.29119 2.06592 8.16701 1.90013C7.23582 0.65704 5.99615 0 4.58203 0C1.91064 0 0 2.33073 0 5.12748C0 8.32543 2.51537 11.3393 8.15592 14.8999C8.26167 14.9666 8.38083 15 8.5 15C8.61917 15 8.73833 14.9666 8.84408 14.8999C14.4846 11.3394 17 8.32546 17 5.12751C17 2.33221 15.0909 0 12.418 0ZM13.9173 9.10947C12.743 10.4748 10.9685 11.9124 8.5 13.4972C6.03151 11.9124 4.25697 10.4748 3.08268 9.10951C1.90204 7.73682 1.32812 6.43429 1.32812 5.12751C1.32812 3.1138 2.63414 1.3839 4.58203 1.3839C5.57401 1.3839 6.41982 1.83332 7.09601 2.71971C7.63669 3.42857 7.86449 4.16055 7.86609 4.16578C7.95258 4.45484 8.20944 4.65173 8.50003 4.65173C8.79063 4.65173 9.04749 4.45487 9.13398 4.16578C9.13607 4.15879 9.35704 3.44964 9.87996 2.7516C10.5598 1.84404 11.4137 1.38386 12.418 1.38386C14.3679 1.38386 15.6719 3.11543 15.6719 5.12748C15.6719 6.43426 15.098 7.73678 13.9173 9.10947Z" fill="white"/>
</svg>
