<svg width="23" height="23" viewBox="0 0 23 23" fill="none" xmlns="http://www.w3.org/2000/svg">
<path d="M21.9912 15.484L19.4972 13.7026C18.5345 13.0151 17.2288 13.1231 16.3923 13.9595L14.9309 15.421C13.058 14.0938 8.90739 9.94376 7.57908 8.06933L9.04054 6.60791C9.87709 5.77136 9.98513 4.4656 9.29755 3.50305L7.5161 1.00905C6.65134 -0.201525 4.90453 -0.347792 3.85088 0.705729L1.54977 3.00684C-0.518191 5.07475 -0.516529 7.87333 1.5544 10.6851C4.83877 15.1443 7.8558 18.1613 12.3151 21.4457C14.9159 23.3612 17.7753 23.6684 19.9934 21.4503L22.2946 19.1492C23.3465 18.0972 23.2035 16.3499 21.9912 15.484ZM21.0242 17.8787L18.723 20.1798C17.1273 21.7756 15.1911 21.3324 13.3806 19.999C9.07927 16.831 6.1691 13.9208 3.00108 9.6196C1.66819 7.80986 1.22399 5.87347 2.82022 4.27729L5.12142 1.97614C5.39033 1.70723 5.83411 1.74532 6.0541 2.05336L7.83559 4.54736C8.01056 4.79232 7.98302 5.12457 7.77018 5.33741L5.82531 7.2822C5.5803 7.52725 5.49805 7.8913 5.6139 8.21789C6.23343 9.96362 13.0384 16.7673 14.7824 17.3862C15.1089 17.5022 15.473 17.4198 15.718 17.1748L17.6629 15.23C17.8758 15.0172 18.2081 14.9897 18.453 15.1646L20.947 16.9461C21.2557 17.1665 21.2923 17.6106 21.0242 17.8787Z" fill="black"/>
</svg>
