<svg width="38" height="45" viewBox="0 0 38 45" fill="none" xmlns="http://www.w3.org/2000/svg">
<path d="M32.3449 29.9422C33.9102 31.0788 34.6498 34.433 34.8036 35.6322L35.971 44.4374L37.1906 44.2774L36.0243 35.4619C35.9997 35.267 35.3822 30.6233 33.0732 28.9575C32.2997 28.4405 31.4709 28.0107 30.6011 27.6773C30.5487 27.6373 30.4923 27.6055 30.4298 27.584L29.922 27.4045C29.1547 27.108 28.3536 26.8311 27.5843 26.591L27.1093 26.4249C27.0622 26.4074 27.0139 26.3972 26.9637 26.392C25.6774 25.9848 24.548 25.6842 23.9428 25.5263V24.1805C25.7799 22.8675 26.8714 20.7482 26.8693 18.4905V17.4545C27.0745 17.5294 27.2909 17.5684 27.5073 17.5714C28.5341 17.5714 29.366 16.7395 29.366 15.7127V14.0551C29.366 13.6048 29.1999 13.1709 28.9014 12.8365C29.0993 12.5205 29.1999 12.1533 29.1916 11.782V11.0742C29.2204 10.5582 29.0573 10.0495 28.7352 9.64428C28.568 9.4699 28.3536 9.34476 28.1177 9.28629C27.972 7.60711 27.175 2.67725 22.9232 0.750859H22.8862C21.7784 0.275927 20.5895 0.0215365 19.3863 0.00204688H19.0324C17.8815 -0.0215458 16.7357 0.15899 15.6464 0.534421H15.6176C10.9094 2.26592 10.061 7.52709 9.92769 9.26988C9.69074 9.32835 9.47532 9.45247 9.30915 9.62787C8.97167 10.0279 8.79524 10.5377 8.81678 11.0588V11.7871C8.80755 12.1584 8.90807 12.5246 9.10502 12.8385C8.80857 13.176 8.64137 13.6099 8.64137 14.0602V15.7209C8.64137 16.7477 9.4743 17.5786 10.5001 17.5786C10.7186 17.5786 10.9329 17.5386 11.1371 17.4617V18.5018C11.1412 20.7339 12.209 22.8295 14.0123 24.1446V25.5263C11.8377 26.0935 9.69484 26.7818 7.59714 27.5912H7.56944C6.6401 27.9389 5.75383 28.3933 4.92603 28.9411C2.61703 30.6233 2.00054 35.2619 1.97489 35.4465L0.808594 44.2671L2.02823 44.4251L3.19454 35.6045C3.35045 34.4084 4.08798 31.0583 5.63382 29.9125C6.12516 29.5853 6.64625 29.3062 7.19093 29.0785V34.3623C6.29236 34.6926 5.15888 35.6168 5.15888 37.5678V44.3604C5.15888 44.6959 5.43071 44.9698 5.76819 44.9698H32.2597C32.5972 44.9698 32.868 44.6959 32.868 44.3604V37.5791C32.868 35.6281 31.7274 34.7049 30.836 34.3756V29.0919C31.3663 29.3257 31.8699 29.6109 32.3449 29.9422ZM28.1577 14.0551V15.7179C28.131 16.0687 27.8222 16.3313 27.4714 16.3036C27.1596 16.2779 26.9114 16.0297 26.8857 15.7179V14.0551C26.859 13.7033 27.1196 13.3966 27.4714 13.3668C27.8222 13.3391 28.131 13.6017 28.1577 13.9525C28.1618 13.9864 28.1618 14.0212 28.1577 14.0551ZM19.8653 1.25041C20.607 1.30683 21.3384 1.46787 22.0369 1.72431V4.81086C21.5343 5.53402 20.7414 5.9987 19.8653 6.08281V1.25041ZM16.4752 1.55506C17.1809 1.35299 17.9102 1.24118 18.6467 1.22169V6.09922C17.7707 6.01511 16.9758 5.54941 16.4752 4.82624V1.55506ZM11.1217 15.7127C11.094 16.0636 10.7852 16.3272 10.4354 16.2985C10.1236 16.2749 9.87537 16.0266 9.84973 15.7127V14.0551C9.82101 13.7033 10.0836 13.3966 10.4354 13.3668C10.7852 13.3391 11.094 13.6017 11.1217 13.9525C11.1248 13.9864 11.1248 14.0212 11.1217 14.0551V15.7127ZM10.4837 12.1933C10.3677 12.1933 10.2549 12.2046 10.1431 12.2251C10.0487 12.099 10.0036 11.94 10.02 11.782V11.0434C10.0128 10.8496 10.061 10.6588 10.1626 10.4936C10.1862 10.4741 10.217 10.467 10.2488 10.4711H10.4837C10.8201 10.4711 11.094 10.1972 11.094 9.8597C11.094 9.57556 11.174 4.1677 15.2525 2.04538V4.97395C15.2525 5.06422 15.273 5.15244 15.312 5.23347C15.354 5.31861 16.348 7.34759 19.2509 7.34759C22.1528 7.34759 23.1509 5.31554 23.1909 5.23347C23.2278 5.15244 23.2494 5.06422 23.2463 4.97395V2.33875C26.8211 4.62006 26.9062 9.58684 26.9062 9.8597C26.9062 10.1972 27.1801 10.4711 27.5155 10.4711H27.7515C27.812 10.4711 27.8253 10.4711 27.8366 10.4936C27.9402 10.6629 27.9884 10.8578 27.9792 11.0568V11.782C27.9956 11.942 27.9484 12.102 27.8489 12.2251C27.2509 12.1072 26.6324 12.2959 26.2036 12.7308H11.8038C11.454 12.3831 10.9791 12.1923 10.4878 12.1974L10.4837 12.1933ZM12.3413 18.5018V13.9505H25.6743V18.5018C25.6692 21.6981 23.077 24.2851 19.8818 24.282H18.1256C14.9334 24.281 12.3454 21.695 12.3413 18.5018ZM22.7385 24.8883V25.7899L18.9996 30.571L15.2186 25.7899V24.8626C16.1305 25.2863 17.1224 25.5047 18.1256 25.5058H19.8818C20.8675 25.5058 21.842 25.2945 22.7385 24.8883ZM11.6951 27.4537C12.8573 27.0988 13.8584 26.828 14.3775 26.6926L19.0078 32.5466L23.5858 26.6926C24.112 26.8311 25.1296 27.0988 26.3174 27.4691V34.4525H11.6818L11.6951 27.4537ZM31.6504 37.5791V43.7614H6.3775V37.5791C6.3775 35.7388 7.73972 35.4742 7.88538 35.4486C8.18798 35.4065 8.41057 35.148 8.41057 34.8444V28.5831C9.0804 28.3225 9.79229 28.0753 10.4837 27.8517V35.0629C10.4837 35.4003 10.7565 35.6742 11.094 35.6742H26.9462C27.2827 35.6742 27.5566 35.4003 27.5566 35.0629V27.864L29.6091 28.5831V34.8444C29.6091 35.149 29.8358 35.4096 30.1374 35.4486C30.2 35.4568 31.6504 35.6742 31.6504 37.5791Z" fill="#0067B4"/>
<path d="M7.78906 36.8107H11.0808V37.9042H7.78906V36.8107Z" fill="#0067B4"/>
<path d="M26.9258 36.8107H30.2195V37.9042H26.9258V36.8107Z" fill="#0067B4"/>
</svg>
